<mxfile host="app.diagrams.net" modified="2024-02-10T05:14:50.301Z" agent="Mozilla/5.0 (Windows NT 10.0; Win64; x64) AppleWebKit/537.36 (KHTML, like Gecko) Chrome/120.0.0.0 Safari/537.36" etag="pzCKWR5-KKeWTYQFSGpo" version="23.1.2" type="github">
  <diagram name="第 1 页" id="f0YeDjMEGShFUGs4qQmA">
    <mxGraphModel dx="2074" dy="3478" grid="1" gridSize="10" guides="1" tooltips="1" connect="1" arrows="1" fold="1" page="1" pageScale="1" pageWidth="827" pageHeight="1169" math="0" shadow="0">
      <root>
        <mxCell id="0" />
        <mxCell id="1" parent="0" />
        <mxCell id="w6Ssev359jJsRczqyK-9-29" value="" style="edgeStyle=orthogonalEdgeStyle;rounded=0;orthogonalLoop=1;jettySize=auto;html=1;" parent="1" source="w6Ssev359jJsRczqyK-9-2" target="w6Ssev359jJsRczqyK-9-28" edge="1">
          <mxGeometry relative="1" as="geometry" />
        </mxCell>
        <mxCell id="w6Ssev359jJsRczqyK-9-2" value="Update the points&amp;nbsp;" style="rounded=1;whiteSpace=wrap;html=1;shadow=0;comic=0;labelBackgroundColor=none;strokeWidth=1;fontFamily=Verdana;fontSize=12;align=center;arcSize=50;" parent="1" vertex="1">
          <mxGeometry x="259.06" y="-2140" width="132.5" height="40" as="geometry" />
        </mxCell>
        <mxCell id="w6Ssev359jJsRczqyK-9-3" value="" style="edgeStyle=orthogonalEdgeStyle;rounded=0;orthogonalLoop=1;jettySize=auto;html=1;entryX=0.5;entryY=0;entryDx=0;entryDy=0;" parent="1" source="w6Ssev359jJsRczqyK-9-4" target="w6Ssev359jJsRczqyK-9-27" edge="1">
          <mxGeometry relative="1" as="geometry">
            <mxPoint x="325.31" y="-2210" as="targetPoint" />
          </mxGeometry>
        </mxCell>
        <mxCell id="w6Ssev359jJsRczqyK-9-4" value="" style="ellipse;whiteSpace=wrap;html=1;rounded=0;shadow=0;comic=0;labelBackgroundColor=none;strokeWidth=1;fillColor=#000000;fontFamily=Verdana;fontSize=12;align=center;" parent="1" vertex="1">
          <mxGeometry x="305.31" y="-2280" width="40" height="40" as="geometry" />
        </mxCell>
        <mxCell id="w6Ssev359jJsRczqyK-9-25" value="" style="shape=mxgraph.bpmn.shape;html=1;verticalLabelPosition=bottom;labelBackgroundColor=#ffffff;verticalAlign=top;perimeter=ellipsePerimeter;outline=end;symbol=terminate;rounded=0;shadow=0;comic=0;strokeWidth=1;fontFamily=Verdana;fontSize=12;align=center;" parent="1" vertex="1">
          <mxGeometry x="296.56" y="-1470" width="40" height="40" as="geometry" />
        </mxCell>
        <mxCell id="w6Ssev359jJsRczqyK-9-26" value="" style="edgeStyle=orthogonalEdgeStyle;rounded=0;orthogonalLoop=1;jettySize=auto;html=1;" parent="1" source="w6Ssev359jJsRczqyK-9-27" target="w6Ssev359jJsRczqyK-9-2" edge="1">
          <mxGeometry relative="1" as="geometry" />
        </mxCell>
        <mxCell id="w6Ssev359jJsRczqyK-9-27" value="Complete a puzzle" style="rounded=1;whiteSpace=wrap;html=1;shadow=0;comic=0;labelBackgroundColor=none;strokeWidth=1;fontFamily=Verdana;fontSize=12;align=center;arcSize=50;" parent="1" vertex="1">
          <mxGeometry x="267.81" y="-2210" width="115" height="40" as="geometry" />
        </mxCell>
        <mxCell id="w6Ssev359jJsRczqyK-9-31" value="" style="edgeStyle=orthogonalEdgeStyle;rounded=0;orthogonalLoop=1;jettySize=auto;html=1;" parent="1" source="w6Ssev359jJsRczqyK-9-28" target="w6Ssev359jJsRczqyK-9-30" edge="1">
          <mxGeometry relative="1" as="geometry" />
        </mxCell>
        <mxCell id="w6Ssev359jJsRczqyK-9-28" value="Display a screen with the details of this puzzle" style="rounded=1;whiteSpace=wrap;html=1;shadow=0;comic=0;labelBackgroundColor=none;strokeWidth=1;fontFamily=Verdana;fontSize=12;align=center;arcSize=50;" parent="1" vertex="1">
          <mxGeometry x="240.31" y="-2070" width="170" height="50" as="geometry" />
        </mxCell>
        <mxCell id="w6Ssev359jJsRczqyK-9-47" value="" style="edgeStyle=orthogonalEdgeStyle;rounded=0;orthogonalLoop=1;jettySize=auto;html=1;entryX=0.5;entryY=0;entryDx=0;entryDy=0;" parent="1" source="w6Ssev359jJsRczqyK-9-30" target="w6Ssev359jJsRczqyK-9-34" edge="1">
          <mxGeometry relative="1" as="geometry">
            <mxPoint x="325.4000000000001" y="-1890" as="targetPoint" />
          </mxGeometry>
        </mxCell>
        <mxCell id="w6Ssev359jJsRczqyK-9-50" value="Level completed&amp;nbsp;" style="edgeLabel;html=1;align=center;verticalAlign=middle;resizable=0;points=[];" parent="w6Ssev359jJsRczqyK-9-47" vertex="1" connectable="0">
          <mxGeometry x="-0.2759" relative="1" as="geometry">
            <mxPoint x="45" as="offset" />
          </mxGeometry>
        </mxCell>
        <mxCell id="v0xXK9j6HNpIpHMnE0X--4" value="" style="edgeStyle=orthogonalEdgeStyle;rounded=0;orthogonalLoop=1;jettySize=auto;html=1;entryX=0.5;entryY=1;entryDx=0;entryDy=0;" parent="1" source="w6Ssev359jJsRczqyK-9-30" target="v0xXK9j6HNpIpHMnE0X--6" edge="1">
          <mxGeometry relative="1" as="geometry">
            <mxPoint x="480.31" y="-1960" as="targetPoint" />
          </mxGeometry>
        </mxCell>
        <mxCell id="v0xXK9j6HNpIpHMnE0X--5" value="Level incompleted" style="edgeLabel;html=1;align=center;verticalAlign=middle;resizable=0;points=[];" parent="v0xXK9j6HNpIpHMnE0X--4" vertex="1" connectable="0">
          <mxGeometry x="-0.0737" y="1" relative="1" as="geometry">
            <mxPoint x="-69" y="7" as="offset" />
          </mxGeometry>
        </mxCell>
        <mxCell id="w6Ssev359jJsRczqyK-9-30" value="" style="rhombus;whiteSpace=wrap;html=1;" parent="1" vertex="1">
          <mxGeometry x="285.31" y="-2000" width="80" height="80" as="geometry" />
        </mxCell>
        <mxCell id="1_Lp_Znfj6XmXs-wdfdf-5" value="" style="edgeStyle=orthogonalEdgeStyle;rounded=0;orthogonalLoop=1;jettySize=auto;html=1;" edge="1" parent="1" source="w6Ssev359jJsRczqyK-9-34" target="1_Lp_Znfj6XmXs-wdfdf-4">
          <mxGeometry relative="1" as="geometry" />
        </mxCell>
        <mxCell id="w6Ssev359jJsRczqyK-9-34" value="Display a screen with level completion info" style="rounded=1;whiteSpace=wrap;html=1;shadow=0;comic=0;labelBackgroundColor=none;strokeWidth=1;fontFamily=Verdana;fontSize=12;align=center;arcSize=50;" parent="1" vertex="1">
          <mxGeometry x="230" y="-1880" width="190.62" height="40" as="geometry" />
        </mxCell>
        <mxCell id="v0xXK9j6HNpIpHMnE0X--8" value="" style="edgeStyle=orthogonalEdgeStyle;rounded=0;orthogonalLoop=1;jettySize=auto;html=1;" parent="1" source="v0xXK9j6HNpIpHMnE0X--6" target="w6Ssev359jJsRczqyK-9-27" edge="1">
          <mxGeometry relative="1" as="geometry" />
        </mxCell>
        <mxCell id="v0xXK9j6HNpIpHMnE0X--6" value="&amp;nbsp;Choose the next puzzle randomly" style="rounded=1;whiteSpace=wrap;html=1;shadow=0;comic=0;labelBackgroundColor=none;strokeWidth=1;fontFamily=Verdana;fontSize=12;align=center;arcSize=50;" parent="1" vertex="1">
          <mxGeometry x="430.31" y="-2226.5" width="140" height="73" as="geometry" />
        </mxCell>
        <mxCell id="v0xXK9j6HNpIpHMnE0X--18" value="" style="edgeStyle=orthogonalEdgeStyle;rounded=0;orthogonalLoop=1;jettySize=auto;html=1;" parent="1" source="v0xXK9j6HNpIpHMnE0X--15" target="w6Ssev359jJsRczqyK-9-25" edge="1">
          <mxGeometry relative="1" as="geometry" />
        </mxCell>
        <mxCell id="v0xXK9j6HNpIpHMnE0X--15" value="go back to main menu" style="rounded=1;whiteSpace=wrap;html=1;shadow=0;comic=0;labelBackgroundColor=none;strokeWidth=1;fontFamily=Verdana;fontSize=12;align=center;arcSize=50;" parent="1" vertex="1">
          <mxGeometry x="250.31" y="-1540" width="132.5" height="40" as="geometry" />
        </mxCell>
        <mxCell id="1_Lp_Znfj6XmXs-wdfdf-7" value="" style="edgeStyle=orthogonalEdgeStyle;rounded=0;orthogonalLoop=1;jettySize=auto;html=1;" edge="1" parent="1" source="1_Lp_Znfj6XmXs-wdfdf-4" target="1_Lp_Znfj6XmXs-wdfdf-6">
          <mxGeometry relative="1" as="geometry" />
        </mxCell>
        <mxCell id="1_Lp_Znfj6XmXs-wdfdf-16" value="" style="edgeStyle=orthogonalEdgeStyle;rounded=0;orthogonalLoop=1;jettySize=auto;html=1;entryX=0.5;entryY=0;entryDx=0;entryDy=0;" edge="1" parent="1" source="1_Lp_Znfj6XmXs-wdfdf-4" target="1_Lp_Znfj6XmXs-wdfdf-8">
          <mxGeometry relative="1" as="geometry">
            <mxPoint x="225.30999999999995" y="-1770" as="targetPoint" />
          </mxGeometry>
        </mxCell>
        <mxCell id="1_Lp_Znfj6XmXs-wdfdf-4" value="" style="rhombus;whiteSpace=wrap;html=1;" vertex="1" parent="1">
          <mxGeometry x="285.31" y="-1810" width="80" height="80" as="geometry" />
        </mxCell>
        <mxCell id="1_Lp_Znfj6XmXs-wdfdf-11" value="" style="edgeStyle=orthogonalEdgeStyle;rounded=0;orthogonalLoop=1;jettySize=auto;html=1;" edge="1" parent="1" source="1_Lp_Znfj6XmXs-wdfdf-6" target="1_Lp_Znfj6XmXs-wdfdf-10">
          <mxGeometry relative="1" as="geometry" />
        </mxCell>
        <mxCell id="1_Lp_Znfj6XmXs-wdfdf-6" value="Level completed with enough points" style="rounded=1;whiteSpace=wrap;html=1;shadow=0;comic=0;labelBackgroundColor=none;strokeWidth=1;fontFamily=Verdana;fontSize=12;align=center;arcSize=50;" vertex="1" parent="1">
          <mxGeometry x="450" y="-1790" width="190.62" height="40" as="geometry" />
        </mxCell>
        <mxCell id="1_Lp_Znfj6XmXs-wdfdf-22" value="" style="edgeStyle=orthogonalEdgeStyle;rounded=0;orthogonalLoop=1;jettySize=auto;html=1;entryX=0;entryY=0.5;entryDx=0;entryDy=0;" edge="1" parent="1" source="1_Lp_Znfj6XmXs-wdfdf-8" target="v0xXK9j6HNpIpHMnE0X--15">
          <mxGeometry relative="1" as="geometry">
            <mxPoint x="145" y="-1600" as="targetPoint" />
            <Array as="points">
              <mxPoint x="95" y="-1520" />
            </Array>
          </mxGeometry>
        </mxCell>
        <mxCell id="1_Lp_Znfj6XmXs-wdfdf-8" value="Level completed without enough points" style="rounded=1;whiteSpace=wrap;html=1;shadow=0;comic=0;labelBackgroundColor=none;strokeWidth=1;fontFamily=Verdana;fontSize=12;align=center;arcSize=50;" vertex="1" parent="1">
          <mxGeometry y="-1700" width="190.62" height="40" as="geometry" />
        </mxCell>
        <mxCell id="1_Lp_Znfj6XmXs-wdfdf-17" value="" style="edgeStyle=orthogonalEdgeStyle;rounded=0;orthogonalLoop=1;jettySize=auto;html=1;" edge="1" parent="1" source="1_Lp_Znfj6XmXs-wdfdf-10" target="1_Lp_Znfj6XmXs-wdfdf-13">
          <mxGeometry relative="1" as="geometry" />
        </mxCell>
        <mxCell id="1_Lp_Znfj6XmXs-wdfdf-18" value="" style="edgeStyle=orthogonalEdgeStyle;rounded=0;orthogonalLoop=1;jettySize=auto;html=1;" edge="1" parent="1" source="1_Lp_Znfj6XmXs-wdfdf-10" target="1_Lp_Znfj6XmXs-wdfdf-14">
          <mxGeometry relative="1" as="geometry" />
        </mxCell>
        <mxCell id="1_Lp_Znfj6XmXs-wdfdf-10" value="" style="rhombus;whiteSpace=wrap;html=1;" vertex="1" parent="1">
          <mxGeometry x="505.31" y="-1720" width="80" height="80" as="geometry" />
        </mxCell>
        <mxCell id="1_Lp_Znfj6XmXs-wdfdf-28" value="" style="edgeStyle=orthogonalEdgeStyle;rounded=0;orthogonalLoop=1;jettySize=auto;html=1;entryX=0.556;entryY=0.075;entryDx=0;entryDy=0;entryPerimeter=0;" edge="1" parent="1" source="1_Lp_Znfj6XmXs-wdfdf-13" target="v0xXK9j6HNpIpHMnE0X--15">
          <mxGeometry relative="1" as="geometry">
            <mxPoint x="325" y="-1540" as="targetPoint" />
            <Array as="points">
              <mxPoint x="324" y="-1620" />
              <mxPoint x="324" y="-1620" />
            </Array>
          </mxGeometry>
        </mxCell>
        <mxCell id="1_Lp_Znfj6XmXs-wdfdf-13" value="Unlock the next difficulity level" style="rounded=1;whiteSpace=wrap;html=1;shadow=0;comic=0;labelBackgroundColor=none;strokeWidth=1;fontFamily=Verdana;fontSize=12;align=center;arcSize=50;" vertex="1" parent="1">
          <mxGeometry x="230" y="-1700" width="190.62" height="40" as="geometry" />
        </mxCell>
        <mxCell id="1_Lp_Znfj6XmXs-wdfdf-20" value="" style="edgeStyle=orthogonalEdgeStyle;rounded=0;orthogonalLoop=1;jettySize=auto;html=1;entryX=1;entryY=0.5;entryDx=0;entryDy=0;exitX=0.5;exitY=1;exitDx=0;exitDy=0;" edge="1" parent="1" source="1_Lp_Znfj6XmXs-wdfdf-14" target="v0xXK9j6HNpIpHMnE0X--15">
          <mxGeometry relative="1" as="geometry">
            <mxPoint x="545.31" y="-1495" as="targetPoint" />
          </mxGeometry>
        </mxCell>
        <mxCell id="1_Lp_Znfj6XmXs-wdfdf-14" value="Display a screen for the completion of all difficulity levels" style="rounded=1;whiteSpace=wrap;html=1;shadow=0;comic=0;labelBackgroundColor=none;strokeWidth=1;fontFamily=Verdana;fontSize=12;align=center;arcSize=50;" vertex="1" parent="1">
          <mxGeometry x="430.31" y="-1610" width="230" height="50" as="geometry" />
        </mxCell>
      </root>
    </mxGraphModel>
  </diagram>
</mxfile>
